<?xml version="1.0" standalone="no"?>
<!DOCTYPE svg PUBLIC "-//W3C//DTD SVG 20010904//EN"
 "http://www.w3.org/TR/2001/REC-SVG-20010904/DTD/svg10.dtd">
<svg version="1.0" xmlns="http://www.w3.org/2000/svg"
 width="260.000000pt" height="260.000000pt" viewBox="0 0 260.000000 260.000000"
 preserveAspectRatio="xMidYMid meet">
<metadata>
Created by potrace 1.14, written by Peter Selinger 2001-2017
</metadata>
<g transform="translate(0.000000,260.000000) scale(0.100000,-0.100000)"
fill="#000000" stroke="none">
<path d="M1050 2360 c-9 -6 -10 -10 -3 -10 6 0 15 5 18 10 8 12 4 12 -15 0z"/>
<path d="M2234 2349 c-3 -6 -2 -14 3 -18 8 -5 9 -14 4 -38 -1 -5 -6 -1 -12 7
-9 13 -10 12 -5 -2 7 -22 -3 -50 -14 -43 -5 3 -11 -4 -15 -15 -4 -11 -11 -18
-16 -15 -5 4 -9 1 -9 -4 0 -6 6 -11 13 -11 8 0 9 -3 1 -8 -6 -4 -10 -19 -10
-34 1 -14 -3 -26 -9 -25 -5 1 -10 -7 -10 -18 -1 -11 -4 -26 -8 -33 -5 -6 -5
-17 -1 -23 3 -6 0 -15 -7 -20 -12 -7 -11 -9 1 -9 11 0 12 -2 3 -8 -7 -4 -13
-23 -14 -42 -2 -19 -7 -41 -12 -47 -6 -9 -6 -13 1 -13 6 0 7 -13 2 -34 -4 -19
-5 -37 -2 -40 3 -4 -1 -6 -9 -6 -11 0 -11 -2 1 -10 8 -5 11 -10 5 -10 -9 0
-15 -84 -18 -252 0 -30 -4 -45 -11 -41 -6 4 -5 -1 3 -10 7 -9 10 -17 5 -17 -8
0 -9 -221 -2 -353 2 -26 -1 -47 -5 -47 -5 0 -5 -6 0 -12 4 -7 8 -44 10 -83 1
-38 2 -70 3 -70 1 0 3 -35 5 -77 1 -42 6 -81 10 -87 3 -6 0 -11 -7 -11 -8 0
-9 -3 -3 -8 6 -4 11 -16 12 -27 2 -11 5 -45 9 -75 3 -30 11 -61 17 -69 10 -12
9 -13 -1 -7 -11 7 -12 4 -3 -13 7 -12 9 -25 6 -30 -3 -5 2 -16 10 -24 11 -11
11 -17 3 -19 -8 -3 -4 -16 12 -38 13 -18 17 -30 9 -25 -12 8 -12 6 0 -8 7 -9
11 -26 8 -37 -4 -18 -2 -20 16 -14 22 6 22 6 2 -11 -19 -16 -18 -16 25 -12 25
3 39 3 32 0 -6 -3 -9 -9 -6 -14 3 -6 11 -5 20 2 10 8 14 8 14 0 0 -10 -13 -15
-32 -12 -15 2 -8 -17 8 -23 9 -3 12 -2 9 5 -4 6 0 9 11 7 21 -3 26 19 10 41
-7 10 -2 9 16 -3 27 -17 27 -17 23 3 -2 12 1 21 8 21 7 0 6 4 -3 10 -10 6 -11
10 -2 10 7 0 12 13 12 31 0 20 4 28 11 23 8 -5 10 1 7 19 -3 15 -1 24 3 21 9
-5 11 2 11 48 1 16 4 28 7 28 4 0 8 10 9 23 2 29 10 82 12 82 2 0 17 171 26
315 10 150 5 760 -6 760 -3 0 -6 30 -8 66 -1 36 -7 74 -12 84 -7 13 -7 21 0
25 6 3 7 14 2 23 -4 9 -7 26 -7 37 1 11 -2 25 -5 30 -4 6 -8 28 -9 50 -1 22
-6 42 -12 46 -6 3 -9 10 -8 15 5 29 -2 55 -13 48 -8 -5 -8 -1 1 10 13 15 13
19 0 27 -8 5 -10 9 -4 9 5 0 4 5 -2 11 -6 6 -9 19 -6 28 4 13 3 14 -5 1 -8
-10 -8 -18 0 -27 6 -8 7 -13 1 -13 -6 0 -21 20 -34 45 -25 47 -38 57 -35 29 0
-9 -5 -19 -11 -21 -7 -3 -13 0 -13 7 0 6 5 8 10 5 14 -9 12 8 -2 24 -11 11
-10 12 1 6 10 -6 12 -4 7 4 -5 8 -2 11 9 9 10 -2 20 4 22 12 3 9 1 11 -4 5
-11 -14 -49 -12 -45 3 3 15 -5 16 -14 1z m86 -364 c-5 -7 -7 -14 -4 -17 3 -4
8 -21 11 -40 3 -18 10 -39 16 -47 10 -12 9 -13 -3 -6 -12 7 -13 6 -2 -7 6 -8
12 -26 12 -39 0 -76 5 -119 14 -119 6 0 4 -5 -4 -10 -8 -5 -10 -10 -5 -10 14
0 14 -10 14 -365 0 -372 1 -356 -11 -349 -6 4 -5 -3 1 -15 9 -16 9 -21 -1 -21
-10 0 -10 -2 1 -9 8 -6 10 -14 5 -22 -13 -22 -14 -43 -1 -51 9 -6 8 -8 -2 -8
-7 0 -11 -6 -7 -15 3 -8 2 -15 -3 -15 -4 0 -7 -12 -6 -27 1 -16 -1 -32 -5 -38
-3 -5 -7 -21 -8 -34 0 -13 -7 -28 -14 -32 -10 -7 -10 -9 2 -9 11 0 11 -3 3 -8
-6 -4 -11 -16 -10 -27 1 -14 -4 -19 -18 -18 -17 1 -17 -1 5 -18 18 -14 20 -17
6 -12 -12 4 -17 2 -13 -3 3 -6 -5 -10 -18 -10 -13 0 -21 4 -18 10 4 5 -1 7
-10 3 -9 -3 -18 0 -21 9 -4 10 -2 13 7 8 8 -6 8 -3 -1 9 -8 9 -11 21 -7 27 3
5 2 10 -3 10 -6 0 -13 7 -16 16 -4 9 -2 13 5 8 8 -4 7 0 0 15 -7 12 -9 26 -6
31 3 6 1 10 -6 10 -7 0 -9 10 -7 25 3 14 2 25 -1 25 -4 0 -8 10 -8 23 -1 12
-4 45 -8 72 -3 28 -7 88 -8 135 -1 47 -6 91 -10 98 -5 6 -4 12 0 12 5 0 9 9
10 20 1 11 -3 20 -8 20 -6 0 -6 7 0 19 6 10 7 21 4 25 -10 9 -11 46 -2 46 9 0
6 26 -4 36 -4 4 -2 13 4 21 9 10 8 13 0 13 -7 0 -9 5 -4 13 10 16 10 38 0 60
-5 11 -4 17 5 17 9 0 9 3 -2 10 -11 7 -11 10 -2 10 8 0 10 5 5 13 -10 16 -13
37 -5 37 4 0 8 46 10 103 3 100 8 172 12 172 1 0 7 56 13 118 1 9 5 17 9 17 4
0 5 9 3 20 -2 11 2 20 8 20 7 0 6 4 -3 10 -9 6 -10 10 -3 10 6 0 10 9 8 19 -3
15 1 19 17 16 20 -4 20 -4 2 18 -10 12 -15 19 -10 15 5 -4 15 -3 22 3 8 7 14
7 19 -1 3 -5 11 -10 17 -10 6 0 5 7 -3 18 -7 9 1 4 19 -12 22 -20 29 -33 22
-41z"/>
<path d="M2245 2020 c-3 -5 -1 -10 4 -10 6 0 11 5 11 10 0 6 -2 10 -4 10 -3 0
-8 -4 -11 -10z"/>
<path d="M2296 2005 c4 -8 11 -15 16 -15 6 0 5 6 -2 15 -7 8 -14 15 -16 15 -2
0 -1 -7 2 -15z"/>
<path d="M2270 2000 c0 -5 5 -10 11 -10 5 0 7 5 4 10 -3 6 -8 10 -11 10 -2 0
-4 -4 -4 -10z"/>
<path d="M184 2333 c-4 -10 -6 -24 -5 -32 1 -7 -2 -10 -8 -6 -7 3 -8 0 -5 -9
6 -14 -5 -21 -28 -17 -5 0 -8 -4 -8 -10 0 -6 10 -8 23 -5 12 3 16 3 9 0 -6 -3
-10 -10 -7 -15 4 -5 -1 -6 -9 -3 -11 4 -16 0 -16 -10 0 -9 -5 -16 -10 -16 -12
0 -9 -22 5 -32 6 -5 5 -8 -3 -8 -7 0 -11 -4 -8 -9 3 -5 0 -11 -8 -14 -8 -3
-12 -16 -11 -31 2 -14 0 -26 -5 -26 -5 0 -7 -8 -5 -17 1 -10 -3 -24 -9 -32 -9
-12 -8 -13 3 -6 11 6 12 5 5 -6 -10 -16 -11 -24 -19 -99 -9 -87 -13 -115 -14
-115 -3 0 -13 -224 -14 -337 -1 -60 -6 -104 -11 -100 -5 3 -6 -1 -1 -7 10 -17
13 -181 3 -181 -4 0 -8 -5 -8 -11 0 -5 4 -8 8 -5 5 3 9 -21 9 -52 1 -31 1 -66
2 -77 1 -11 1 -27 1 -35 -2 -46 8 -161 13 -167 4 -3 2 -12 -4 -20 -6 -7 -7
-13 -2 -13 5 0 9 -10 10 -22 1 -13 4 -48 8 -78 4 -30 7 -62 7 -70 0 -8 2 -22
6 -30 7 -17 10 -42 13 -88 2 -24 6 -31 17 -27 11 4 12 2 4 -7 -7 -9 -6 -20 3
-38 8 -14 14 -31 15 -39 0 -8 8 -24 18 -35 16 -20 16 -20 -1 -7 -9 8 -20 11
-24 7 -3 -3 -1 -6 6 -6 7 0 10 -4 7 -9 -3 -4 5 -7 17 -6 12 1 32 -4 44 -12 15
-9 30 -10 46 -4 17 7 29 6 37 -2 7 -7 5 0 -5 16 -17 26 -17 27 0 21 13 -5 16
-3 13 7 -3 8 2 20 11 27 14 12 14 13 -1 8 -12 -3 -15 -1 -11 9 3 8 9 12 14 9
8 -4 14 17 10 38 0 5 4 8 10 8 6 0 9 7 5 15 -3 8 0 15 6 15 6 0 5 6 -3 17 -8
9 -9 14 -3 10 13 -8 11 93 -2 114 -4 8 -3 10 5 5 9 -6 10 0 4 21 -4 15 -7 36
-7 46 0 9 -3 17 -6 17 -4 0 -6 16 -5 35 1 19 -2 32 -7 29 -4 -3 -6 -10 -3 -15
4 -5 2 -9 -4 -9 -6 0 -7 -7 -4 -17 5 -11 3 -14 -6 -8 -10 6 -11 3 -2 -13 13
-25 14 -35 2 -27 -5 3 -12 1 -16 -5 -4 -6 -11 -7 -17 -4 -6 4 -8 2 -4 -4 3 -6
1 -14 -4 -17 -8 -5 -5 -14 7 -27 18 -21 18 -21 -5 -9 -13 7 -26 10 -30 7 -3
-3 0 -6 6 -6 6 0 16 -10 23 -21 8 -16 8 -20 0 -14 -7 4 -19 1 -28 -7 -12 -9
-15 -9 -9 0 7 11 -11 17 -37 13 -5 -1 -6 2 -3 7 2 4 1 14 -4 22 -5 8 -5 21 0
31 7 12 5 21 -8 30 -15 12 -16 12 -5 -2 10 -13 10 -16 -1 -16 -8 0 -12 13 -11
39 1 21 -2 38 -6 38 -4 0 -6 8 -4 18 1 9 -2 23 -8 30 -6 8 -5 12 4 12 9 0 10
3 4 8 -17 12 -19 43 -28 362 -1 36 -6 71 -10 78 -5 6 -4 12 1 12 12 0 12 32
-1 48 -6 8 -6 12 1 12 6 0 9 18 7 42 -2 24 2 49 8 57 9 11 9 13 1 8 -7 -4 -15
0 -18 9 -3 8 -2 12 4 9 6 -4 8 6 6 24 -2 17 -1 31 3 31 3 0 6 46 6 103 -1 56
2 107 6 112 3 6 6 17 7 25 1 59 12 105 23 102 10 -2 10 0 -1 12 -9 12 -9 16
-1 16 7 0 10 4 7 9 -4 5 0 12 6 14 10 4 10 6 1 6 -7 1 -10 8 -7 16 4 8 11 12
18 8 7 -5 7 -2 -1 8 -7 9 -8 20 -3 29 5 8 7 17 5 21 -5 7 52 2 66 -6 5 -4 9
-11 9 -16 0 -6 -5 -7 -12 -3 -7 4 -8 3 -4 -5 4 -6 12 -9 17 -6 5 4 9 0 9 -7 0
-8 5 -19 12 -26 13 -13 20 -37 19 -69 0 -13 4 -23 10 -23 5 0 8 -4 5 -8 -2 -4
0 -14 5 -22 7 -11 8 -8 5 12 -2 14 -2 29 2 32 11 12 10 36 -1 29 -7 -4 -6 0 1
10 8 9 11 21 7 27 -3 5 0 10 7 10 10 0 10 2 -1 9 -11 7 -11 9 0 14 11 4 11 6
1 6 -8 1 -10 6 -5 14 11 18 11 100 0 115 -6 8 -5 12 4 12 9 1 8 5 -5 15 -14
11 -16 15 -5 15 12 0 12 2 -1 10 -16 10 -20 39 -7 57 6 9 3 11 -12 8 -26 -5
-26 -2 -3 21 16 17 16 18 -2 11 -14 -6 -17 -4 -12 10 6 15 5 16 -5 6 -20 -20
-27 -15 -25 16 1 18 -2 27 -9 24 -7 -2 -12 3 -12 12 0 8 4 15 9 15 4 0 8 4 8
8 0 5 -7 9 -15 9 -8 0 -12 -4 -10 -8 3 -3 -2 -12 -9 -18 -10 -8 -16 -9 -21 -1
-3 5 -1 10 4 10 6 0 11 5 11 10 0 16 -17 11 -26 -7z m33 -21 c10 8 12 7 7 -5
-3 -8 -13 -18 -22 -22 -9 -3 -13 -3 -9 1 4 4 1 14 -5 23 -10 13 -10 14 2 4 10
-9 17 -10 27 -1z m72 -1615 c-2 -1 -13 -9 -24 -17 -19 -14 -19 -14 -6 3 7 9
18 17 24 17 6 0 8 -1 6 -3z m-89 -97 c0 -5 -2 -10 -4 -10 -3 0 -8 5 -11 10 -3
6 -1 10 4 10 6 0 11 -4 11 -10z m30 -240 c0 -5 -5 -10 -11 -10 -5 0 -7 5 -4
10 3 6 8 10 11 10 2 0 4 -4 4 -10z"/>
<path d="M1031 2332 c3 -19 -2 -32 -12 -29 -6 1 -17 -8 -26 -20 -13 -20 -13
-21 4 -19 10 2 12 1 5 -1 -7 -3 -9 -9 -6 -15 4 -5 -4 -4 -17 2 -13 7 -21 9
-17 5 4 -4 2 -17 -4 -29 -9 -18 -9 -19 3 -11 11 7 11 6 -1 -5 -8 -8 -14 -27
-12 -43 2 -16 -2 -29 -10 -32 -7 -3 -13 -20 -12 -38 0 -17 -3 -40 -8 -49 -5
-10 -4 -19 2 -23 8 -5 8 -11 0 -20 -18 -21 -27 -300 -15 -465 4 -52 7 -103 6
-112 0 -10 3 -18 7 -18 4 0 8 -19 9 -42 2 -24 8 -45 13 -46 7 -3 7 -9 -1 -18
-9 -11 -8 -14 4 -14 11 0 14 -5 10 -17 -4 -11 -3 -14 5 -9 7 4 12 2 12 -3 0
-6 -6 -11 -12 -11 -10 0 -10 -2 0 -9 8 -4 12 -16 10 -26 -2 -10 4 -20 12 -22
13 -4 13 -3 0 6 -10 7 -11 11 -3 11 7 0 20 -11 29 -25 9 -14 19 -23 23 -21 4
3 6 -10 5 -27 -1 -18 4 -39 11 -47 7 -8 13 -19 12 -25 0 -5 8 -11 19 -12 18
-3 18 -2 -1 7 -19 9 -19 10 -1 7 12 -1 20 -11 21 -24 1 -13 -3 -20 -9 -17 -6
3 -2 -2 8 -10 15 -12 16 -16 5 -16 -9 0 -10 -3 -3 -8 5 -4 10 -20 10 -37 -1
-16 4 -33 9 -37 6 -5 6 -8 -2 -8 -8 0 -9 -9 -5 -27 4 -16 7 -39 6 -53 -1 -14
-3 -46 -5 -72 -1 -26 -6 -45 -10 -42 -4 2 -6 -7 -3 -22 3 -18 1 -23 -7 -18 -8
4 -9 3 -5 -5 4 -6 2 -19 -6 -28 -7 -9 -8 -14 -2 -10 16 9 5 -40 -12 -54 -9 -8
-14 -8 -14 -1 0 6 -8 9 -18 7 -23 -4 -49 11 -39 22 5 4 13 1 18 -7 9 -13 10
-13 6 0 -2 8 -13 14 -25 13 -11 -1 -23 4 -26 12 -3 9 0 12 10 8 14 -5 14 -3 3
16 -8 11 -18 21 -24 21 -5 0 -3 5 5 10 11 7 11 10 2 10 -7 0 -10 4 -7 10 4 6
-1 7 -11 3 -14 -5 -15 -3 -4 17 7 12 8 20 2 16 -11 -7 -25 21 -17 34 3 4 -1
10 -9 13 -11 5 -13 0 -6 -24 5 -16 5 -29 2 -29 -4 0 -8 -43 -9 -95 -1 -52 -4
-99 -8 -105 -3 -5 -1 -10 5 -10 6 0 8 -5 4 -11 -3 -6 4 -25 16 -41 13 -17 18
-28 11 -24 -6 4 -11 2 -11 -3 0 -6 5 -11 11 -11 8 0 8 -4 -1 -15 -10 -12 -8
-14 9 -10 15 3 19 0 14 -8 -17 -27 -10 -45 15 -41 23 5 24 3 11 -12 -12 -16
-12 -17 1 -12 15 6 64 -25 55 -34 -3 -3 2 -5 10 -5 13 0 13 3 -1 18 -15 17
-15 18 5 16 12 -1 21 -6 21 -12 1 -12 23 25 26 43 2 10 -1 10 -12 1 -7 -6 -12
-15 -9 -19 8 -14 -24 -5 -38 10 -10 12 -9 12 4 2 12 -9 19 -7 32 8 17 20 53
17 40 -3 -3 -6 -1 -7 6 -3 9 6 9 11 -1 24 -10 12 -10 16 -1 19 9 3 10 10 3 23
-7 13 -7 21 0 25 6 4 8 11 4 16 -3 5 0 8 7 7 7 -2 14 6 16 17 6 43 12 81 17
105 3 14 8 70 12 125 3 54 8 103 10 107 3 4 1 8 -5 8 -7 0 -7 9 -3 23 5 12 7
45 6 72 -9 201 -14 260 -24 263 -8 3 -7 8 1 18 7 9 8 14 1 14 -6 0 -11 8 -11
18 -1 37 -5 52 -12 52 -4 0 -10 7 -13 16 -6 15 -4 15 11 3 17 -13 17 -13 0 7
-9 11 -14 24 -10 29 5 4 3 5 -3 2 -7 -4 -14 0 -18 8 -3 8 -1 15 5 15 6 0 1 8
-12 18 -17 15 -19 21 -9 27 9 6 11 4 5 -5 -5 -9 -4 -11 3 -6 17 10 15 15 -13
26 -17 7 -23 15 -19 27 5 15 4 15 -4 3 -8 -10 -8 -18 0 -27 6 -8 9 -16 6 -19
-3 -2 -13 7 -23 22 -9 15 -12 23 -6 20 19 -12 12 6 -11 25 -11 11 -17 19 -12
19 6 0 15 -5 22 -12 9 -9 12 -9 12 0 0 7 -4 12 -8 12 -5 0 -17 7 -28 16 -10 8
-12 13 -4 9 12 -5 12 -4 -1 7 -19 15 -37 64 -20 54 7 -5 9 -1 5 8 -3 9 -11 16
-18 16 -6 0 -4 5 4 10 8 5 10 10 4 10 -13 0 -13 4 -13 135 1 130 1 135 14 135
5 0 3 5 -5 10 -12 8 -12 10 -1 10 11 0 11 3 1 15 -10 12 -10 15 0 15 7 0 10 7
7 15 -4 8 -1 17 5 21 7 5 8 2 3 -6 -5 -9 -4 -11 4 -6 9 6 9 11 1 21 -7 8 -7
15 -1 19 5 4 12 2 15 -3 6 -9 18 -9 46 2 21 8 50 5 44 -4 -2 -4 0 -19 6 -34 8
-20 7 -24 -3 -19 -9 6 -9 5 0 -7 10 -12 10 -18 0 -28 -9 -10 -9 -11 4 -6 10 4
16 0 17 -10 1 -8 3 -22 4 -30 1 -8 5 -15 10 -15 8 0 12 31 9 59 -2 7 1 11 6 8
5 -3 8 10 7 29 -1 20 3 34 10 34 6 0 4 5 -4 10 -8 5 -10 10 -4 10 15 0 8 98
-9 119 -9 12 -9 13 1 7 6 -4 12 -3 12 1 0 5 -9 14 -21 21 -13 9 -17 17 -12 25
10 13 10 19 -2 55 -6 18 -10 20 -16 10 -7 -10 -9 -11 -9 0 0 8 -5 10 -12 6
-10 -6 -10 -5 -1 7 10 12 10 18 1 27 -16 16 -34 15 -52 -4 -9 -8 -16 -11 -16
-5 0 16 48 44 62 35 10 -5 10 -4 1 6 -12 13 -63 23 -62 12z m39 -6 c0 -2 -7
-7 -16 -10 -8 -3 -12 -2 -9 4 6 10 25 14 25 6z m24 -44 c3 -5 -1 -9 -9 -9 -8
0 -15 4 -15 9 0 4 4 8 9 8 6 0 12 -4 15 -8z m36 -62 c0 -5 -2 -10 -4 -10 -3 0
-8 5 -11 10 -3 6 -1 10 4 10 6 0 11 -4 11 -10z m-72 -194 c-15 -16 -36 -16
-42 0 -3 7 2 10 15 7 11 -3 19 0 19 6 0 7 4 9 10 6 6 -4 5 -11 -2 -19z m2
-886 c0 -5 -5 -10 -11 -10 -5 0 -7 5 -4 10 3 6 8 10 11 10 2 0 4 -4 4 -10z m6
-46 c2 -12 -1 -13 -12 -3 -7 6 -11 16 -8 21 7 11 17 3 20 -18z m-41 -754 c3
-5 2 -10 -4 -10 -5 0 -13 5 -16 10 -3 6 -2 10 4 10 5 0 13 -4 16 -10z"/>
<path d="M1735 2331 c-3 -5 -2 -12 3 -15 5 -3 9 1 9 9 0 17 -3 19 -12 6z"/>
<path d="M2305 2319 c-4 -6 -5 -12 -2 -15 2 -3 7 2 10 11 7 17 1 20 -8 4z"/>
<path d="M433 2305 c0 -8 4 -12 9 -9 5 3 6 10 3 15 -9 13 -12 11 -12 -6z"/>
<path d="M1474 2313 c3 -6 2 -15 -4 -18 -6 -4 -8 -15 -5 -25 5 -17 3 -17 -19
-7 -13 6 -22 15 -20 19 3 5 0 8 -5 8 -14 0 -14 -17 -1 -25 6 -3 9 -14 9 -23
-1 -15 -2 -15 -6 1 -4 15 -7 16 -19 6 -12 -10 -14 -10 -12 1 2 7 -3 15 -11 18
-8 2 -11 0 -7 -6 3 -6 -1 -9 -11 -7 -10 1 -23 -1 -29 -6 -7 -5 -11 -3 -11 5 0
8 8 13 19 11 10 -2 16 0 13 6 -4 5 -1 8 6 7 6 -2 13 3 15 10 1 7 0 8 -3 2 -3
-7 -10 -7 -20 1 -8 7 -13 8 -11 3 2 -5 -1 -10 -7 -11 -5 -2 -10 1 -10 6 0 5
-3 13 -7 17 -4 3 -6 -3 -3 -15 2 -11 0 -21 -5 -21 -4 0 -7 -8 -5 -17 1 -10 0
-13 -2 -6 -2 6 -15 9 -29 7 -13 -2 -24 0 -24 5 0 4 10 8 21 7 14 -1 23 6 25
16 1 11 -3 15 -12 11 -8 -3 -14 -9 -14 -14 0 -5 -3 -8 -7 -8 -22 4 -43 -2 -43
-12 0 -5 5 -7 12 -3 7 4 8 3 4 -5 -4 -6 -12 -9 -17 -6 -5 4 -9 -1 -9 -10 0
-10 5 -14 13 -10 6 4 5 1 -3 -7 -11 -9 -15 -31 -14 -73 3 -113 3 -117 17 -109
9 5 9 4 1 -5 -7 -7 -9 -21 -7 -32 4 -15 9 -16 24 -8 10 5 19 7 19 4 0 -3 10
-1 21 6 13 7 19 7 15 1 -3 -6 -2 -13 4 -17 5 -3 10 0 10 7 0 10 2 10 8 1 4 -7
8 -83 8 -168 -1 -97 3 -155 9 -155 7 0 7 -3 0 -8 -13 -9 -13 -105 0 -114 7 -5
7 -8 0 -8 -13 0 -13 -110 0 -110 7 0 7 -3 0 -8 -5 -4 -10 -49 -10 -100 0 -54
4 -92 10 -92 7 0 7 -3 0 -8 -13 -9 -14 -105 0 -114 6 -5 6 -8 0 -8 -5 0 -10
-25 -10 -55 0 -30 5 -55 10 -55 7 0 7 -3 0 -8 -13 -9 -14 -105 0 -114 6 -5 6
-8 0 -8 -5 0 -10 -25 -10 -55 0 -30 5 -55 10 -55 7 0 7 -3 0 -8 -13 -9 -14
-105 0 -114 6 -5 6 -8 0 -8 -6 0 -9 -41 -8 -107 2 -151 2 -145 15 -137 7 5 8
3 2 -7 -15 -24 -14 -42 1 -29 8 7 20 8 26 4 9 -5 10 -2 5 11 -5 14 -3 15 6 7
13 -10 18 24 17 113 -1 148 0 1411 1 1415 1 3 3 28 5 55 1 28 3 53 4 57 0 4
15 -6 31 -24 17 -17 30 -26 30 -20 0 6 -8 16 -17 22 -15 9 -13 10 10 5 18 -3
26 -2 23 4 -4 5 -1 13 5 17 8 4 9 3 5 -4 -4 -7 -2 -12 5 -12 8 0 7 -5 -2 -17
-13 -16 -12 -17 3 -5 10 8 14 20 11 29 -5 12 -3 14 8 8 9 -5 7 -1 -3 11 -13
15 -15 23 -6 32 14 14 18 102 5 102 -6 0 -6 5 -1 13 9 11 10 34 4 47 -2 3 -4
20 -4 37 -1 18 -6 36 -11 40 -4 5 -5 2 -1 -4 4 -7 2 -13 -4 -13 -6 0 -8 -5 -4
-12 5 -9 2 -9 -9 1 -9 7 -17 19 -17 25 0 6 5 4 10 -4 8 -12 9 -10 7 7 -2 12
-7 26 -12 30 -4 5 -5 3 -1 -4z m-20 -312 c-2 -3 -12 3 -22 13 -16 17 -16 18 5
5 12 -7 20 -15 17 -18z"/>
<path d="M453 2291 c-9 -14 -9 -21 0 -30 9 -9 8 -11 -7 -5 -15 6 -17 4 -11 -6
5 -8 4 -11 -3 -6 -6 4 -9 13 -6 20 3 8 1 16 -4 20 -5 3 -9 0 -9 -7 0 -7 -4
-34 -8 -62 -4 -27 -7 -56 -6 -62 1 -13 1 -32 1 -55 -1 -7 1 -28 3 -46 2 -18
-1 -36 -5 -38 -5 -3 -4 -12 2 -19 8 -10 8 -15 0 -20 -7 -5 -8 -11 -1 -19 6 -7
6 -17 1 -26 -5 -8 -5 -21 1 -32 7 -12 6 -18 -1 -18 -6 0 -8 -5 -3 -12 10 -17
10 -39 0 -60 -5 -11 -4 -18 3 -18 7 0 8 -6 1 -18 -6 -11 -6 -24 0 -35 7 -12 6
-17 -1 -17 -6 0 -8 -5 -4 -12 10 -17 11 -108 1 -108 -5 0 -5 -6 -1 -12 11 -18
12 -48 2 -48 -5 0 -7 -4 -3 -9 10 -17 13 -71 3 -77 -5 -3 -4 -11 2 -19 6 -7 7
-15 3 -18 -5 -3 -7 -23 -5 -44 1 -21 3 -44 2 -50 0 -7 0 -19 0 -25 -1 -7 1
-28 3 -46 2 -18 -1 -36 -5 -38 -5 -3 -4 -12 2 -19 7 -9 8 -15 1 -19 -7 -5 -7
-15 -1 -31 6 -17 6 -25 -1 -25 -6 0 -7 -6 -3 -12 11 -17 12 -48 3 -48 -5 0 -4
-11 1 -24 5 -15 5 -27 -3 -35 -8 -8 -8 -11 1 -11 9 0 10 -5 3 -18 -6 -11 -6
-24 0 -35 7 -12 6 -17 -1 -17 -6 0 -8 -5 -3 -12 10 -17 10 -39 0 -60 -5 -11
-4 -18 3 -18 7 0 8 -6 1 -18 -6 -11 -6 -24 0 -35 7 -12 6 -17 -1 -17 -6 0 -8
-5 -4 -12 11 -17 11 -89 1 -95 -4 -3 -3 -11 3 -18 6 -7 7 -15 3 -18 -5 -3 -7
-23 -5 -44 1 -21 3 -44 2 -50 0 -7 0 -19 0 -25 -1 -7 1 -28 3 -46 2 -18 -1
-36 -5 -38 -5 -3 -4 -12 2 -19 7 -8 9 -19 6 -24 -4 -5 -1 -13 5 -17 6 -3 15 0
20 7 6 9 9 10 9 2 0 -7 -8 -16 -17 -22 -14 -7 -13 -9 9 -8 17 2 24 6 20 16 -3
8 -1 12 5 8 5 -3 10 0 10 8 0 8 -5 12 -11 9 -6 -3 -4 0 4 8 13 11 15 64 14
365 0 211 3 350 8 346 6 -3 8 5 6 18 -2 19 1 23 16 21 10 -2 16 1 12 6 -3 5 1
9 9 9 18 0 20 -17 3 -17 -8 0 -5 -7 6 -15 11 -8 15 -15 10 -15 -6 0 -15 5 -21
11 -8 8 -13 7 -18 -2 -5 -7 -4 -10 1 -6 12 7 35 -12 52 -42 11 -19 11 -22 0
-15 -10 6 -10 5 -2 -7 6 -8 11 -21 11 -29 0 -25 14 -113 19 -122 3 -4 -1 -8
-8 -8 -8 0 -9 -3 -3 -8 6 -4 12 -36 13 -72 2 -36 8 -68 15 -72 9 -6 9 -8 -1
-8 -8 0 -10 -5 -5 -12 7 -13 8 -23 13 -118 2 -25 8 -51 14 -59 8 -11 8 -13 -1
-7 -7 4 -13 2 -13 -3 0 -6 4 -11 8 -11 4 0 8 -9 9 -20 1 -13 -2 -18 -10 -13
-9 5 -9 3 -1 -8 10 -12 16 -40 26 -126 1 -9 5 -10 15 -2 7 7 13 7 13 2 0 -5 7
-10 15 -10 8 0 12 4 9 9 -3 5 -1 14 4 21 9 12 8 69 -2 152 -15 123 -19 175
-20 222 -1 28 -4 49 -8 47 -4 -2 -6 9 -6 24 1 16 -2 34 -6 40 -3 6 -2 13 4 17
6 4 7 12 3 18 -9 14 -12 30 -14 77 -1 19 -6 40 -9 45 -4 6 -7 24 -6 42 0 17
-2 29 -6 27 -4 -2 -9 0 -12 5 -4 5 -2 12 4 16 6 4 8 11 4 16 -11 19 -14 58 -4
64 6 4 7 -1 4 -12 -5 -15 -4 -15 4 -3 8 10 7 19 -1 29 -10 12 -9 13 2 6 11 -6
13 -4 8 8 -3 10 -3 17 2 17 4 0 8 6 9 13 5 62 11 88 19 99 5 7 9 32 9 56 -1
23 1 42 4 42 3 0 5 35 5 78 0 42 4 83 9 90 5 8 4 12 -5 12 -9 0 -10 3 -4 8 6
4 11 18 13 31 3 17 0 21 -10 15 -11 -6 -11 -5 0 8 14 17 12 114 -3 138 -5 8
-4 11 1 7 5 -3 9 14 9 38 0 24 -3 41 -6 39 -3 -2 -5 24 -5 56 1 33 -1 60 -4
60 -3 0 -6 17 -5 38 0 20 -7 48 -15 62 -14 24 -14 25 5 10 19 -14 19 -14 3 6
-10 11 -19 36 -20 56 -2 20 -6 34 -9 32 -4 -2 -12 9 -18 24 -7 16 -20 28 -32
29 -12 1 -17 -2 -13 -9 5 -7 2 -8 -6 -3 -10 6 -10 11 3 20 15 11 14 13 -8 23
-27 13 -45 -2 -26 -21 20 -20 12 -31 -9 -12 -11 10 -20 14 -20 9 0 -5 -5 -2
-10 6 -7 12 -12 12 -22 2 -17 -17 -33 -15 -18 3 7 9 11 17 9 20 -3 2 -10 -4
-16 -14z m111 -12 c-6 -11 -24 -2 -24 11 0 5 7 7 15 4 8 -4 12 -10 9 -15z
m-50 -14 c3 3 2 0 -4 -7 -5 -6 -16 -13 -24 -14 -12 -2 -13 4 -7 35 1 2 7 -2
14 -8 8 -6 17 -9 21 -6z m12 -258 c-4 6 -2 15 4 18 6 4 10 3 9 -2 -3 -18 2
-33 11 -33 5 0 7 7 4 15 -4 8 -1 15 5 15 6 0 11 -7 11 -16 0 -8 4 -13 9 -9 9
5 17 -12 26 -52 2 -10 7 -27 11 -37 5 -13 4 -17 -3 -13 -7 5 -9 0 -6 -13 3
-11 8 -18 12 -16 3 2 7 -20 8 -50 2 -41 -1 -53 -10 -47 -7 4 -7 0 2 -10 7 -9
11 -30 9 -47 -3 -17 0 -30 6 -30 6 0 4 -5 -4 -10 -13 -8 -13 -11 -1 -19 11 -7
10 -11 -5 -20 -11 -6 -13 -11 -6 -11 9 0 11 -11 8 -37 -3 -21 -5 -38 -6 -38
-3 0 -10 -56 -11 -77 0 -9 -7 -22 -15 -29 -8 -6 -14 -17 -14 -23 0 -6 4 -5 9
3 6 9 11 10 15 2 4 -6 3 -11 -2 -11 -4 0 -18 -9 -29 -19 -20 -19 -21 -19 -20
5 0 13 3 21 8 18 5 -3 9 -1 9 5 0 5 -9 9 -20 8 -13 -1 -18 -7 -15 -17 2 -8 0
-22 -6 -30 -8 -12 -9 -11 -4 6 5 18 1 21 -22 20 l-28 -1 -1 298 c0 170 3 297
8 297 5 0 6 5 2 12 -4 7 -3 8 4 4 7 -4 12 -2 12 5 0 7 7 4 16 -7 8 -10 13 -14
10 -7z m-16 -617 c0 -5 -5 -10 -11 -10 -5 0 -7 5 -4 10 3 6 8 10 11 10 2 0 4
-4 4 -10z m0 -224 c0 -3 -4 -8 -10 -11 -5 -3 -10 -1 -10 4 0 6 5 11 10 11 6 0
10 -2 10 -4z"/>
<path d="M495 2001 c-3 -5 -2 -12 3 -15 5 -3 9 1 9 9 0 17 -3 19 -12 6z"/>
<path d="M1218 2298 c6 -6 18 -8 28 -6 14 3 12 5 -9 10 -19 3 -25 2 -19 -4z"/>
<path d="M1987 2299 c-9 -6 -15 -14 -12 -20 4 -5 2 -9 -3 -9 -5 0 -9 -7 -9
-15 0 -8 5 -11 11 -8 6 4 5 -1 -3 -10 -7 -9 -10 -17 -6 -17 4 0 2 -7 -5 -15
-7 -8 -9 -15 -4 -15 5 0 9 -20 9 -45 0 -25 -3 -45 -6 -45 -3 0 -6 -7 -6 -15 0
-8 4 -15 9 -15 5 0 4 -9 -2 -19 -5 -11 -6 -22 -2 -25 10 -6 9 -36 -1 -53 -4
-6 -3 -15 3 -18 8 -5 7 -12 -2 -23 -10 -12 -10 -16 -1 -19 9 -3 10 -10 3 -23
-6 -10 -6 -21 -2 -24 11 -6 9 -37 -3 -56 -5 -8 -5 -15 1 -17 11 -4 10 -85 -1
-103 -5 -8 -4 -15 3 -18 8 -2 9 -9 2 -22 -6 -10 -6 -21 -2 -24 11 -6 9 -37 -3
-56 -5 -8 -5 -15 1 -17 11 -4 10 -85 -1 -103 -5 -8 -4 -15 3 -18 8 -2 9 -9 2
-22 -6 -10 -6 -21 -2 -24 10 -6 9 -42 -1 -52 -4 -4 -2 -13 4 -21 6 -7 7 -13 2
-13 -5 0 -10 -7 -10 -15 0 -8 4 -15 9 -15 5 0 4 -8 -1 -19 -6 -10 -7 -21 -4
-25 11 -11 10 -46 -1 -46 -6 0 -6 -4 2 -12 14 -14 -4 -52 -20 -42 -7 4 -8 3
-4 -4 4 -6 14 -8 24 -5 14 5 15 3 5 -7 -8 -9 -9 -19 -3 -31 7 -11 7 -20 0 -24
-5 -3 -6 -13 -3 -23 3 -9 3 -14 -1 -11 -6 6 -12 27 -20 76 -1 7 -5 16 -9 19
-4 4 -2 13 4 21 6 7 8 13 3 13 -5 0 -10 15 -10 33 -1 17 -5 48 -8 67 -4 19 -8
53 -11 75 -2 22 -6 49 -8 60 -5 21 -19 107 -23 140 -1 11 -5 38 -8 60 -3 22
-5 40 -6 40 -3 0 -8 47 -11 90 -1 22 -5 45 -8 50 -3 6 -6 19 -7 30 -1 11 -3
37 -5 58 -2 20 -8 37 -14 37 -5 0 -3 5 5 10 12 8 12 10 1 10 -9 0 -12 8 -9 25
3 14 2 25 -2 25 -5 0 -6 9 -3 21 4 12 0 25 -8 30 -11 7 -11 9 -1 9 7 0 10 5 6
12 -4 6 -8 21 -10 32 -1 12 -5 44 -9 71 -4 28 -7 58 -7 67 1 10 -3 20 -9 23
-14 9 -11 27 4 19 6 -4 1 6 -13 22 -14 16 -27 31 -29 34 -2 3 -1 -3 2 -12 4
-12 1 -18 -9 -18 -11 0 -12 -4 -5 -19 6 -10 8 -21 4 -24 -3 -4 -7 -29 -9 -57
-2 -27 -6 -55 -10 -62 -4 -7 -3 -8 4 -4 7 4 12 3 12 -3 0 -5 -5 -13 -10 -16
-6 -4 -7 -12 -3 -18 10 -14 9 -209 0 -225 -4 -6 -4 -13 0 -15 9 -6 9 -1009 0
-1024 -4 -6 -4 -13 0 -17 10 -9 9 -256 -1 -256 -5 0 -4 -6 1 -13 5 -6 8 -37 7
-67 -1 -30 3 -61 9 -69 10 -12 9 -13 -3 -6 -13 8 -13 7 0 -10 8 -10 14 -21 12
-24 -2 -3 1 -7 7 -9 6 -2 11 1 11 8 0 6 -4 8 -10 5 -16 -10 -11 1 7 16 10 8
14 9 10 2 -4 -6 -3 -15 3 -18 6 -4 10 -3 9 2 -4 24 2 63 9 59 5 -3 9 1 9 9 0
8 -4 12 -8 9 -4 -2 -7 5 -6 16 1 11 6 20 12 20 7 0 7 3 0 8 -14 9 -15 133 -2
125 6 -4 7 -1 2 7 -13 21 -14 121 -2 113 6 -4 7 -1 1 8 -12 20 -13 359 0 352
5 -4 6 -1 1 7 -13 21 -14 121 -2 113 6 -4 7 -1 1 8 -13 21 -13 251 0 268 8 11
8 13 -1 8 -8 -5 -11 1 -9 20 2 16 -1 33 -6 40 -6 7 -5 14 2 18 6 3 7 11 4 17
-4 7 -2 8 5 4 9 -6 9 -11 -1 -24 -11 -13 -10 -15 5 -9 15 5 16 2 11 -20 -4
-16 -3 -24 3 -20 5 3 10 -6 10 -21 4 -76 8 -110 13 -107 4 2 8 -17 9 -42 1
-46 6 -77 19 -143 4 -19 7 -47 7 -62 -1 -16 2 -28 5 -28 3 0 6 -8 7 -17 4 -49
13 -121 17 -143 12 -53 19 -106 19 -137 -1 -18 2 -31 6 -29 3 2 7 -12 8 -32 1
-43 11 -120 26 -202 4 -19 9 -48 11 -65 2 -16 5 -30 6 -30 1 0 4 -18 5 -40 2
-22 4 -43 4 -46 1 -4 12 -9 26 -11 20 -4 23 -3 14 8 -9 11 -8 14 1 14 7 0 10
7 6 16 -5 14 -4 15 9 4 14 -11 15 -10 7 11 -10 27 -9 70 2 87 3 6 2 13 -3 16
-5 4 -8 18 -5 32 3 16 1 23 -6 19 -6 -3 -7 0 -4 9 3 9 11 13 18 9 8 -5 8 -3 0
8 -5 8 -10 42 -9 76 1 34 -2 60 -7 57 -4 -3 -5 2 -2 10 3 9 11 13 18 9 8 -5 8
-3 0 8 -5 8 -9 46 -9 84 1 40 -3 73 -9 77 -8 5 -8 8 0 8 11 0 13 89 2 106 -4
6 -4 14 0 18 12 12 10 106 -2 106 -8 0 -8 3 -1 8 13 9 17 55 5 47 -6 -3 -7 1
-4 9 3 9 11 13 18 9 8 -5 8 -3 0 8 -5 8 -10 42 -9 76 1 34 -2 60 -7 57 -4 -3
-5 2 -2 10 3 9 11 13 18 9 8 -5 8 -3 0 8 -5 8 -9 46 -9 84 1 40 -3 73 -9 77
-8 5 -8 8 0 8 11 0 13 89 2 106 -4 6 -4 14 0 18 12 12 10 106 -2 106 -8 0 -8
3 -1 8 13 9 17 55 5 47 -6 -3 -7 1 -4 9 3 9 11 13 18 9 8 -5 8 -3 0 8 -5 8
-10 42 -9 76 1 34 -2 60 -7 57 -4 -3 -5 2 -2 10 3 9 11 13 17 9 6 -4 7 -1 1 8
-11 18 -13 119 -2 141 5 10 4 19 -2 23 -5 3 -6 13 -3 22 4 10 2 14 -4 10 -7
-4 -10 5 -9 23 0 17 4 30 9 30 4 0 5 5 1 11 -5 8 -9 8 -14 -1 -4 -7 -13 -9
-19 -5 -9 5 -7 11 6 21 21 16 16 18 -10 3z m-233 -37 c3 -5 -1 -9 -9 -9 -8 0
-12 4 -9 9 3 4 7 8 9 8 2 0 6 -4 9 -8z m256 -7 c0 -12 -19 -12 -23 0 -4 9 -1
12 9 8 7 -3 14 -7 14 -8z m-220 -655 c0 -5 -4 -10 -10 -10 -5 0 -10 5 -10 10
0 6 5 10 10 10 6 0 10 -4 10 -10z m180 -594 c0 -3 -4 -8 -10 -11 -5 -3 -10 -1
-10 4 0 6 5 11 10 11 6 0 10 -2 10 -4z"/>
<path d="M806 2277 c1 -9 -2 -15 -6 -12 -5 3 -15 -1 -22 -9 -11 -10 -14 -43
-14 -125 1 -68 -3 -111 -9 -111 -6 0 -6 -3 1 -8 13 -9 13 -104 -1 -114 -7 -5
-6 -8 1 -8 13 0 13 -110 -1 -110 -6 0 -6 -3 1 -8 13 -9 13 -104 -1 -114 -7 -5
-6 -8 0 -8 12 0 13 -40 2 -57 -4 -7 -4 -14 1 -17 9 -5 9 -47 -1 -63 -4 -5 -3
-13 0 -17 11 -11 9 -76 -2 -76 -7 0 -7 -3 0 -8 14 -9 13 -112 0 -112 -6 0 -6
-3 1 -8 13 -9 13 -104 -1 -114 -7 -5 -6 -8 0 -8 12 0 13 -40 2 -57 -4 -7 -4
-14 1 -17 9 -5 9 -47 -1 -63 -4 -5 -3 -13 0 -17 11 -11 9 -76 -2 -76 -6 0 -6
-3 1 -8 13 -9 13 -104 -1 -114 -7 -5 -6 -8 1 -8 13 0 13 -110 -1 -110 -6 0 -6
-3 1 -8 13 -9 13 -104 -1 -114 -6 -5 -6 -8 2 -8 14 0 13 -52 -2 -62 -7 -5 -7
-8 0 -8 11 0 12 -50 1 -68 -3 -6 -3 -13 2 -16 4 -2 9 -19 10 -38 2 -18 8 -37
14 -43 8 -7 9 -6 3 3 -4 8 -2 13 6 11 30 -4 41 1 35 16 -3 8 -2 15 2 15 10 0
8 1858 -2 1867 -5 5 -6 2 -1 -6 6 -10 4 -12 -4 -7 -9 6 -9 11 0 22 7 9 8 14 1
14 -6 0 -12 6 -15 13 -2 6 -3 4 -1 -6z m1 -1919 c-3 -8 -6 -5 -6 6 -1 11 2 17
5 13 3 -3 4 -12 1 -19z"/>
<path d="M1390 2281 c0 -6 4 -13 10 -16 6 -3 7 1 4 9 -7 18 -14 21 -14 7z"/>
<path d="M1570 2275 c-1 -11 -2 -446 -4 -967 -2 -634 1 -945 7 -941 7 4 8 -1
3 -13 -4 -10 -4 -15 0 -11 4 4 13 2 19 -3 38 -31 39 -11 39 965 1 572 -3 941
-8 937 -5 -3 -7 2 -3 11 6 15 -2 20 -29 16 -4 0 -10 5 -15 13 -6 9 -8 7 -9 -7z
m25 -15 c-3 -5 -1 -10 6 -10 7 0 10 -3 6 -6 -9 -9 -28 6 -22 17 4 5 8 9 11 9
3 0 2 -4 -1 -10z m19 -1911 c-3 -5 -10 -7 -15 -3 -5 3 -7 10 -3 15 3 5 10 7
15 3 5 -3 7 -10 3 -15z"/>
<path d="M2310 2285 c0 -5 5 -17 10 -25 5 -8 10 -10 10 -5 0 6 -5 17 -10 25
-5 8 -10 11 -10 5z"/>
<path d="M192 2001 c-11 -6 -9 -9 6 -13 15 -4 19 -2 15 8 -6 16 -4 16 -21 5z"/>
<path d="M1065 2000 c-3 -6 1 -7 9 -4 18 7 21 14 7 14 -6 0 -13 -4 -16 -10z"/>
<path d="M1240 1975 c-10 -13 -11 -18 -1 -28 10 -9 11 -8 5 8 -7 18 -6 19 12
5 17 -14 18 -13 7 1 -7 9 -10 19 -6 22 3 4 4 7 1 7 -3 0 -11 -7 -18 -15z"/>
<path d="M1270 1979 c0 -5 5 -7 10 -4 6 3 10 8 10 11 0 2 -4 4 -10 4 -5 0 -10
-5 -10 -11z"/>
<path d="M1300 1970 c-9 -6 -10 -10 -3 -10 6 0 15 5 18 10 8 12 4 12 -15 0z"/>
<path d="M1415 1960 c3 -5 8 -10 11 -10 2 0 4 5 4 10 0 6 -5 10 -11 10 -5 0
-7 -4 -4 -10z"/>
<path d="M258 1923 c7 -3 16 -2 19 1 4 3 -2 6 -13 5 -11 0 -14 -3 -6 -6z"/>
<path d="M1135 1840 c-3 -5 -1 -10 4 -10 6 0 11 5 11 10 0 6 -2 10 -4 10 -3 0
-8 -4 -11 -10z"/>
<path d="M990 1184 c0 -5 7 -18 15 -28 8 -11 15 -16 15 -10 0 5 -7 18 -15 28
-8 11 -15 16 -15 10z"/>
<path d="M500 1082 c0 -5 7 -9 15 -9 8 0 12 4 9 9 -3 4 -9 8 -15 8 -5 0 -9 -4
-9 -8z"/>
<path d="M2545 748 c2 -10 -1 -18 -7 -18 -5 0 -6 -5 -2 -12 4 -7 3 -8 -4 -4
-6 4 -10 12 -8 19 1 7 1 9 -1 4 -3 -4 -9 -4 -15 -1 -5 4 -5 -4 2 -16 7 -13 8
-20 2 -16 -6 3 -13 2 -17 -4 -3 -5 -1 -10 6 -10 8 0 7 -5 -2 -17 -12 -14 -12
-16 0 -8 11 6 12 5 5 -6 -12 -19 -13 -100 -1 -92 5 3 5 -2 -1 -13 -5 -11 -8
-44 -7 -74 1 -30 -3 -60 -7 -67 -6 -7 -3 -15 8 -21 11 -6 15 -16 11 -26 -4
-10 -3 -14 2 -11 6 3 14 -3 20 -12 9 -16 10 -16 11 -1 0 9 4 19 9 23 6 3 8 -4
6 -15 -2 -11 -1 -19 3 -16 12 7 15 58 15 220 0 106 -3 151 -11 154 -7 2 -12 8
-12 13 0 6 4 8 8 5 5 -3 9 1 9 9 0 8 -4 12 -8 9 -4 -2 -9 1 -12 8 -2 7 -3 5
-2 -4z"/>
<path d="M178 663 c6 -2 10 -9 7 -14 -4 -5 1 -6 10 -2 13 5 14 7 3 14 -7 5
-17 8 -23 8 -5 0 -4 -3 3 -6z"/>
<path d="M1037 613 c-12 -12 -7 -19 15 -20 13 -1 18 1 13 5 -6 4 -13 11 -16
15 -3 4 -9 4 -12 0z"/>
<path d="M1125 440 c-3 -5 -1 -10 4 -10 6 0 11 5 11 10 0 6 -2 10 -4 10 -3 0
-8 -4 -11 -10z"/>
<path d="M170 341 c0 -6 7 -11 16 -11 9 0 12 -5 8 -12 -4 -6 -3 -8 4 -4 5 3
13 1 15 -4 3 -6 4 -5 3 1 -3 17 -46 45 -46 30z"/>
<path d="M2230 329 c0 -5 5 -7 10 -4 6 3 10 8 10 11 0 2 -4 4 -10 4 -5 0 -10
-5 -10 -11z"/>
<path d="M190 286 c0 -2 7 -7 16 -10 8 -3 12 -2 9 4 -6 10 -25 14 -25 6z"/>
</g>
</svg>
